PathFileType	4	(X/Y/Z)	C:/Users/beibeiliu/ov580/test_trc/User3\sequence.46_training_dense_right.trc
DataRate	CameraRate	NumFrames	NumMarkers	Units	OrigDataRate	OrigDataStartFrame	OrigNumFrames
120	120	14	19	mm	120	30	58
Frame#	Time	ThumbCMC			ThumbMCP			ThumbIP			ThumbTip			IndexMCP			IndexPIP			IndexTip			MiddleMCP			MiddlePIP			MiddleTip			RingMCP			RingPIP			RingTip			PinkyMCP			PinkyPIP			PinkyTip			BackHand1			BackHand2			BackHand3	
		X0	Y0	Z0	X1	Y1	Z1	X2	Y2	Z2	X3	Y3	Z3	X4	Y4	Z4	X5	Y5	Z5	X6	Y6	Z6	X7	Y7	Z7	X8	Y8	Z8	X9	Y9	Z9	X10	Y10	Z10	X11	Y11	Z11	X12	Y12	Z12	X13	Y13	Z13	X14	Y14	Z14	X15	Y15	Z15	X16	Y16	Z16	X17	Y17	Z17	X18	Y18	Z18	
29	0.241667	202.78	34.0673	32.3656	184.96	32.0641	1.95216	176.49	21.3969	-28.9689	182.13	-4.39217	-41.0568	249.222	22.9053	-32.7496	255.136	23.3314	-55.9785	254.837	17.8009	-82.9956	229.582	-3.54377	-39.7531	198.244	-11.4958	-43.8093	183.837	-3.64402	-6.54849	225.503	-21.3258	-24.6971	193.451	-25.0288	-22.5066	189.835	-12.894	8.55773	226.455	-35.1968	-13.1382	196.795	-36.0699	-11.4062	193.187	-27.5352	15.9074	252.719	-7.34527	23.0898	247.613	-7.48617	56.9685	238.526	27.1869	35.7163	
30	0.25	198.659	28.7956	27.3875	178.801	22.494	-0.238364	167.882	8.21622	-23.296	168.43	-15.516	-33.7578	237.031	12.2313	-35.7415	243.369	3.15741	-59.883	247.605	-1.16174	-82.3618	217.453	-19.138	-36.4007	184.456	-25.5151	-37.5592	177.052	-13.8081	-1.32468	212.448	-35.4471	-21.8296	182.052	-34.3815	-15.6419	184.802	-19.4611	17.2061	214.071	-45.8294	-8.00236	187.502	-40.7279	-3.79757	187.326	-27.1202	20.8603	245.994	-17.335	23.1935	242.872	-11.0838	52.8494	236.148	19.0158	31.5335	
31	0.258333	188.61	28.4188	34.3823	163.505	21.2775	7.13633	149.904	7.04191	-12.723	147.038	-18.7642	-24.6614	212.692	8.20411	-34.3465	211.559	4.82427	-61.9599	214.249	-1.7154	-84.1978	195.215	-20.5259	-35.0749	163.926	-27.5003	-29.7169	162.876	-11.5692	9.35093	191.431	-34.5812	-18.5489	164.641	-36.1451	-4.74837	168.8	-18.335	20.7687	196.714	-48.9587	-3.41439	171.83	-42.269	4.17607	177.885	-23.5179	26.9001	232.83	-15.9539	18.9069	237.595	-8.14907	51.4266	226.09	15.4591	29.7258	
32	0.266667	179.527	36.1373	50.3773	152.407	32.7304	21.3684	136.557	23.1579	-3.04622	136.274	-1.30455	-17.5424	195.944	31.8264	-25.7321	187.932	36.679	-54.4188	185.77	35.8429	-73.9698	183.642	4.1885	-28.6842	149.363	-3.46927	-25.1595	153.866	-4.89406	14.3278	181.651	-15.9967	-17.4533	153.782	-20.5973	-4.75464	164.228	-11.5178	27.5484	188.284	-31.5236	-7.34785	161.953	-33.4687	4.99824	173.257	-16.2492	30.0032	226.241	-6.59136	20.2381	230.477	-8.6825	50.0979	217.353	23.8344	34.0709	
33	0.275	178.2	45.7474	56.3986	153.431	51.417	31.8317	140.208	47.0536	3.24594	141.357	29.4647	-21.9537	199.542	68.0478	-16.857	195.093	75.7067	-39.2586	191.064	79.1303	-63.4689	191.205	34.3829	-25.4833	157.298	26.4381	-29.5248	153.689	15.0676	7.58919	186.115	12.623	-21.8642	160.53	2.30068	-12.6224	165.66	0.0745703	19.263	193.187	-3.16892	-15.5194	167.503	-9.57656	-7.22068	172.77	-7.24039	26.5273	229.497	16.3069	23.5163	229.97	8.49111	51.1477	214.805	42.5295	47.8573	
34	0.283333	178.331	48.5321	51.1638	157.044	55.9558	22.5924	150.378	51.4389	-2.54117	151.44	38.1556	-30.3338	210.87	71.3405	-13.5199	207.709	88.6372	-39.1377	205.404	92.8627	-60.3543	198.557	48.0024	-27.8479	170.75	35.8942	-35.6977	161.476	19.8279	1.56562	198.549	23.7912	-22.2283	172.609	11.0071	-20.7811	168.99	9.90699	15.7562	203.646	5.51501	-16.7317	177.501	-2.23992	-12.8945	174.497	-0.502474	16.8662	231.539	19.5467	28.0622	228.599	11.4894	57.396	215.833	46.7706	47.6558	
35	0.291667	173.716	41.1233	46.5797	154.555	42.859	11.6542	144.698	36.7589	-14.221	150.684	16.5366	-31.9252	209.795	55.2812	-25.2447	210.233	56.105	-48.5291	208.867	62.026	-73.1288	198.257	23.124	-34.9679	168.29	11.582	-39.4255	157.799	4.33152	-2.51415	197.97	0.18662	-22.434	165.862	-5.24518	-18.4308	165.153	-2.11465	16.6921	198.923	-13.6143	-16.3219	175.311	-17.1442	-12.3024	170.6	-9.47123	18.0542	228.229	12.476	27.4447	223.74	5.35111	60.2558	213.803	36.6992	42.9264	
36	0.3	167.736	36.0816	40.7907	144.759	33.4424	16.4874	132.425	21.6537	-14.2708	132.073	-0.444761	-26.0801	195.768	28.0094	-30.8591	192.291	31.1393	-55.7264	190.802	25.5576	-78.5701	179.109	4.07884	-33.9774	150.127	-7.2502	-33.1839	143.439	-1.73488	7.9464	178.763	-17.2184	-18.094	148.136	-21.083	-7.3541	152.302	-8.49791	22.7125	182.69	-34.0353	-6.25248	152.729	-31.173	3.17241	154.293	-17.8724	25.0889	214.507	-2.60715	24.8583	216.235	-0.785641	53.2025	205.314	27.4914	39.8904	
37	0.308333	169.245	33.6799	47.0579	141.193	38.7431	22.5609	121.374	25.2652	-3.98069	114.932	1.18961	-11.9278	178.274	14.5229	-29.2773	172.337	12.3004	-53.6718	165.429	13.4549	-79.0481	157.26	-7.6814	-27.5543	126.305	-10.1903	-18.4548	134.129	-1.80305	20.1413	155.063	-25.1992	-11.2138	126.532	-19.3141	5.8558	137.828	-5.95926	31.358	154.224	-41.1519	1.94272	131.238	-29.8958	15.7556	143.781	-14.1108	37.4269	202.558	-18.0531	24.8365	209.056	-17.2233	51.6432	201.073	15.1437	31.3618	
38	0.316667	184.049	32.108	46.7304	157.595	45.2008	24.0115	132.025	39.4057	1.52167	115.026	22.6877	-3.15748	173.272	7.3495	-31.9656	164.594	10.103	-55.0124	152.406	9.28561	-77.1128	147.15	-7.17763	-21.5589	119.789	8.63785	-12.5928	134.818	15.0038	26.1855	138.245	-16.7183	-7.62262	116.277	-6.34132	8.01735	134.166	5.75517	35.2023	138.126	-34.4698	7.24021	117.62	-19.731	18.0338	133.855	-6.25392	39.0484	188.712	-29.0959	26.1486	199.952	-27.9064	51.1287	204.143	-0.173037	30.4562	
39	0.325	203.289	24.5403	42.5635	180.693	40.9572	16.7995	156.742	43.6326	-0.708564	134.748	38.7889	-5.3978	182.593	1.01412	-28.2397	173.655	5.35047	-54.6735	159.481	11.2977	-77.451	152.012	-0.443694	-25.83	129.338	22.6511	-15.2689	142.659	25.0297	22.0812	136.038	-10.8152	-9.28418	122.119	12.345	2.86211	141.06	17.4168	30.9578	133.436	-23.3057	4.74056	117.06	-0.664303	12.7808	136.228	6.18888	36.2042	177.905	-39.5022	27.2813	189.461	-40.9345	56.4721	206.911	-15.9411	29.2348	
40	0.333333	213.082	10.7139	37.565	199.584	32.4244	15.3719	180.028	44.0643	-5.81169	156.003	41.1505	-14.4987	191.411	-10.4663	-31.7366	180.95	-4.49971	-57.9015	167.282	9.92134	-81.5041	158.818	-9.89797	-29.0868	145.011	19.1551	-32.6279	148.594	35.214	5.49761	143.123	-14.6209	-12.381	131.182	14.6895	-11.229	141.627	25.1037	18.5579	130.965	-22.8414	2.13977	120.724	4.29276	2.41959	135.368	16.0198	25.4913	175.286	-42.5262	25.9855	184.081	-47.7809	55.0904	203.919	-28.5437	31.578	
41	0.341667	216.866	-0.183354	39.4966	213.373	24.8679	16.7472	196.178	37.0386	-8.11071	173.357	43.1486	-21.2305	197.939	-17.9181	-32.8262	189.733	-8.93752	-60.2915	181.826	8.27602	-79.3039	166.201	-16.1701	-35.3938	151.211	10.7327	-43.4026	149.477	38.6297	-14.8134	146.352	-16.1327	-19.0887	138.219	10.3747	-24.0428	145.283	30.9221	6.25164	133.569	-23.1965	1.35365	128.234	6.35426	-6.95097	135.865	22.855	12.8488	172.568	-48.2166	28.3205	177.833	-49.0471	53.5794	206.676	-35.7868	32.5843	
42	0.35	220.675	-7.62907	41.223	222.64	16.8823	20.4485	213.81	34.8722	-6.64507	194.698	45.0181	-23.0362	199.43	-22.0577	-33.832	196.59	-11.2853	-57.3053	190.075	10.0165	-75.2096	170.304	-24.0907	-35.3069	160.72	-2.75767	-52.0886	154.381	35.6598	-43.6914	155.54	-17.9134	-19.2748	144.259	9.59327	-28.5905	148.389	35.1664	-12.3277	136.078	-21.864	-0.0642485	128.767	3.11632	-10.3091	139.646	28.7697	3.72547	172.964	-49.7803	28.9898	175.686	-52.2889	54.6003	206.09	-40.6756	31.6909	
